<svg width="20.000000" height="16.853027" viewBox="0 0 20 16.853" fill="none" xmlns="http://www.w3.org/2000/svg" xmlns:xlink="http://www.w3.org/1999/xlink">
	<desc>
			Created with Pixso.
	</desc>
	<defs/>
	<path id="Vector" d="M19.7 5.65C19.43 5.32 19.04 5.13 18.61 5.13L14.76 5.13L12.67 0.35C12.54 0.05 12.19 -0.09 11.9 0.04C11.6 0.17 11.47 0.52 11.6 0.82L13.48 5.13L6.51 5.13L8.39 0.82C8.52 0.52 8.39 0.17 8.09 0.04C7.8 -0.09 7.45 0.05 7.32 0.35L5.23 5.13L1.38 5.13C0.95 5.13 0.56 5.32 0.29 5.65C0.03 5.98 -0.06 6.39 0.03 6.8L2.08 15.78C2.23 16.41 2.78 16.85 3.44 16.85L16.55 16.85C17.21 16.85 17.76 16.41 17.91 15.78L19.96 6.8C20.05 6.39 19.96 5.98 19.7 5.65ZM16.55 15.68L3.44 15.68C3.33 15.68 3.25 15.61 3.23 15.52L1.17 6.54C1.16 6.47 1.18 6.41 1.21 6.38C1.23 6.35 1.28 6.3 1.38 6.3L4.72 6.3L4.57 6.65C4.44 6.95 4.57 7.29 4.87 7.42C4.94 7.46 5.02 7.47 5.1 7.47C5.33 7.47 5.54 7.34 5.64 7.12L6 6.3L13.99 6.3L14.35 7.12C14.45 7.34 14.66 7.47 14.89 7.47C14.97 7.47 15.05 7.46 15.12 7.42C15.42 7.29 15.55 6.95 15.42 6.65L15.27 6.3L18.61 6.3C18.71 6.3 18.76 6.35 18.78 6.38C18.81 6.41 18.83 6.47 18.82 6.54L16.76 15.52C16.74 15.61 16.66 15.68 16.55 15.68Z" fill="#6F73EE" fill-opacity="1.000000" fill-rule="nonzero"/>
	<path id="Vector" d="" fill="#6F73EE" fill-opacity="1.000000" fill-rule="evenodd"/>
</svg>
