<svg width="20.000000" height="20.000000" viewBox="0 0 20 20" fill="none" xmlns="http://www.w3.org/2000/svg" xmlns:xlink="http://www.w3.org/1999/xlink">
	<desc>
			Created with Pixso.
	</desc>
	<defs>
		<clipPath id="clip30_8004">
			<rect id="shopping-cart 2" width="20.000000" height="20.000000" fill="white" fill-opacity="0"/>
		</clipPath>
	</defs>
	<rect id="shopping-cart 2" width="20.000000" height="20.000000" fill="#FFFFFF" fill-opacity="0"/>
	<g clip-path="url(#clip30_8004)">
		<path id="Vector" d="M19.15 7.25L15 7.25L12.67 1.92C12.54 1.62 12.19 1.49 11.9 1.62C11.6 1.75 11.47 2.09 11.6 2.39L13.72 7.25L6.27 7.25L8.39 2.39C8.52 2.09 8.39 1.75 8.09 1.62C7.8 1.49 7.45 1.62 7.32 1.92L4.99 7.25L0.84 7.25C0.3 7.25 -0.1 7.74 0.01 8.26L2.2 17.77C2.29 18.15 2.63 18.42 3.03 18.42L16.96 18.42C17.36 18.42 17.7 18.15 17.79 17.77L19.98 8.26C20.09 7.74 19.69 7.25 19.15 7.25ZM5.1 9.05C5.02 9.05 4.94 9.03 4.87 9C4.57 8.87 4.44 8.52 4.57 8.23L5.01 7.22L6.28 7.22L5.64 8.69C5.54 8.91 5.33 9.05 5.1 9.05ZM7.07 15.3C7.07 15.62 6.8 15.88 6.48 15.88C6.16 15.88 5.89 15.62 5.89 15.3L5.89 11C5.89 10.68 6.16 10.41 6.48 10.41C6.8 10.41 7.07 10.68 7.07 11L7.07 15.3ZM10.58 15.3C10.58 15.62 10.32 15.88 10 15.88C9.67 15.88 9.41 15.62 9.41 15.3L9.41 11C9.41 10.68 9.67 10.41 10 10.41C10.32 10.41 10.58 10.68 10.58 11L10.58 15.3ZM14.1 15.3C14.1 15.62 13.83 15.88 13.51 15.88C13.19 15.88 12.92 15.62 12.92 15.3L12.92 11C12.92 10.68 13.19 10.41 13.51 10.41C13.83 10.41 14.1 10.68 14.1 11L14.1 15.3ZM15.12 9C15.05 9.03 14.97 9.05 14.89 9.05C14.66 9.05 14.45 8.91 14.35 8.69L13.71 7.22L14.98 7.22L15.42 8.23C15.55 8.52 15.42 8.87 15.12 9Z" fill="#6F73EE" fill-opacity="1.000000" fill-rule="nonzero"/>
	</g>
</svg>
