<svg width="25.000000" height="21.066101" viewBox="0 0 25 21.0661" fill="none" xmlns="http://www.w3.org/2000/svg" xmlns:xlink="http://www.w3.org/1999/xlink">
	<desc>
			Created with Pixso.
	</desc>
	<defs/>
	<path id="Vector" d="M23.94 7.1L18.75 7.1L15.84 0.43C15.68 0.06 15.25 -0.11 14.87 0.06C14.5 0.22 14.33 0.65 14.5 1.02L17.15 7.1L7.84 7.1L10.49 1.02C10.66 0.65 10.49 0.22 10.12 0.06C9.75 -0.11 9.31 0.06 9.15 0.43L6.24 7.1L1.05 7.1C0.38 7.1 -0.13 7.71 0.02 8.36L2.75 20.25C2.86 20.73 3.29 21.06 3.78 21.06L21.21 21.06C21.7 21.06 22.13 20.73 22.24 20.25L24.97 8.36C25.12 7.71 24.61 7.1 23.94 7.1ZM6.38 9.34C6.28 9.34 6.18 9.32 6.08 9.28C5.71 9.12 5.55 8.69 5.71 8.32L6.26 7.06L7.86 7.06L7.05 8.9C6.93 9.18 6.66 9.34 6.38 9.34ZM8.83 17.15C8.83 17.56 8.51 17.89 8.1 17.89C7.69 17.89 7.37 17.56 7.37 17.15L7.37 11.78C7.37 11.38 7.69 11.05 8.1 11.05C8.51 11.05 8.83 11.38 8.83 11.78L8.83 17.15ZM13.23 17.15C13.23 17.56 12.9 17.89 12.5 17.89C12.09 17.89 11.76 17.56 11.76 17.15L11.76 11.78C11.76 11.38 12.09 11.05 12.5 11.05C12.9 11.05 13.23 11.38 13.23 11.78L13.23 17.15ZM17.62 17.15C17.62 17.56 17.3 17.89 16.89 17.89C16.48 17.89 16.16 17.56 16.16 17.15L16.16 11.78C16.16 11.38 16.48 11.05 16.89 11.05C17.3 11.05 17.62 11.38 17.62 11.78L17.62 17.15ZM18.91 9.28C18.81 9.32 18.71 9.34 18.61 9.34C18.33 9.34 18.06 9.18 17.94 8.9L17.13 7.06L18.73 7.06L19.28 8.32C19.44 8.69 19.28 9.12 18.91 9.28Z" fill="#6F73EE" fill-opacity="1.000000" fill-rule="nonzero"/>
</svg>
