<svg width="20.000000" height="20.000000" viewBox="0 0 20 20" fill="none" xmlns="http://www.w3.org/2000/svg" xmlns:xlink="http://www.w3.org/1999/xlink">
	<desc>
			Created with Pixso.
	</desc>
	<defs>
		<clipPath id="clip30_8002">
			<rect id="Icon / Outlined / Heart" width="20.000000" height="20.000000" fill="white" fill-opacity="0"/>
		</clipPath>
	</defs>
	<rect id="Icon / Outlined / Heart" width="20.000000" height="20.000000" fill="#FFFFFF" fill-opacity="0"/>
	<g clip-path="url(#clip30_8002)">
		<path id="Vector" d="M17.99 5.51C17.73 4.9 17.35 4.35 16.88 3.88C16.41 3.42 15.86 3.05 15.25 2.79C14.62 2.53 13.94 2.39 13.26 2.39C12.3 2.39 11.37 2.66 10.55 3.16C10.36 3.28 10.17 3.41 10 3.56C9.82 3.41 9.64 3.28 9.44 3.16C8.63 2.66 7.69 2.39 6.74 2.39C6.05 2.39 5.38 2.53 4.75 2.79C4.14 3.05 3.58 3.42 3.11 3.88C2.64 4.35 2.26 4.9 2.01 5.51C1.73 6.14 1.6 6.82 1.6 7.51C1.6 8.17 1.73 8.85 1.99 9.54C2.21 10.12 2.53 10.72 2.93 11.33C3.57 12.29 4.44 13.29 5.53 14.3C7.34 15.99 9.12 17.15 9.2 17.2L9.66 17.5C9.87 17.63 10.13 17.63 10.33 17.5L10.79 17.2C10.87 17.15 12.66 15.99 14.46 14.3C15.55 13.29 16.42 12.29 17.07 11.33C17.47 10.72 17.78 10.12 18 9.54C18.26 8.85 18.4 8.17 18.4 7.51C18.4 6.82 18.26 6.14 17.99 5.51ZM10 15.94C10 15.94 3.07 11.46 3.07 7.51C3.07 5.51 4.71 3.89 6.74 3.89C8.16 3.89 9.39 4.69 10 5.86C10.6 4.69 11.84 3.89 13.26 3.89C15.28 3.89 16.92 5.51 16.92 7.51C16.92 11.46 10 15.94 10 15.94Z" fill="#282739" fill-opacity="1.000000" fill-rule="nonzero"/>
	</g>
</svg>
