<svg width="123.000000" height="45.000000" viewBox="0 0 123 45" fill="none" xmlns="http://www.w3.org/2000/svg" xmlns:xlink="http://www.w3.org/1999/xlink">
	<desc>
			Created with Pixso.
	</desc>
	<defs>
		<clipPath id="clip44_11563">
			<rect id="013-instagram 1" width="20.000000" height="20.000000" transform="translate(14.000000 13.000000)" fill="white" fill-opacity="0"/>
		</clipPath>
		<linearGradient x1="15.830809" y1="31.169308" x2="32.169189" y2="14.830692" id="paint_linear_44_11560_0" gradientUnits="userSpaceOnUse">
			<stop stop-color="#FFC107"/>
			<stop offset="0.507000" stop-color="#F44336"/>
			<stop offset="0.990000" stop-color="#9C27B0"/>
		</linearGradient>
		<linearGradient x1="20.464563" y1="26.535435" x2="27.535439" y2="19.464561" id="paint_linear_44_11561_0" gradientUnits="userSpaceOnUse">
			<stop stop-color="#FFC107"/>
			<stop offset="0.507000" stop-color="#F44336"/>
			<stop offset="0.990000" stop-color="#9C27B0"/>
		</linearGradient>
		<linearGradient x1="28.902220" y1="18.096420" x2="29.844345" y2="17.154173" id="paint_linear_44_11562_0" gradientUnits="userSpaceOnUse">
			<stop stop-color="#FFC107"/>
			<stop offset="0.507000" stop-color="#F44336"/>
			<stop offset="0.990000" stop-color="#9C27B0"/>
		</linearGradient>
	</defs>
	<rect id="Rectangle 183" rx="5.000000" width="123.000000" height="45.000000" fill="#FFFFFF" fill-opacity="1.000000"/>
	<rect id="013-instagram 1" width="20.000000" height="20.000000" transform="translate(14.000000 13.000000)" fill="#FFFFFF" fill-opacity="0"/>
	<g clip-path="url(#clip44_11563)">
		<path id="Vector" d="M27.75 13L20.25 13C16.79 13 14 15.79 14 19.25L14 26.75C14 30.2 16.79 33 20.25 33L27.75 33C31.2 33 34 30.2 34 26.75L34 19.25C34 15.79 31.2 13 27.75 13ZM32.12 26.75C32.12 29.16 30.16 31.12 27.75 31.12L20.25 31.12C17.83 31.12 15.87 29.16 15.87 26.75L15.87 19.25C15.87 16.83 17.83 14.87 20.25 14.87L27.75 14.87C30.16 14.87 32.12 16.83 32.12 19.25L32.12 26.75Z" fill="url(#paint_linear_44_11560_0)" fill-opacity="1.000000" fill-rule="nonzero"/>
		<path id="Vector" d="M24 18C21.23 18 19 20.23 19 23C19 25.76 21.23 28 24 28C26.76 28 29 25.76 29 23C29 20.23 26.76 18 24 18ZM24 26.12C22.27 26.12 20.87 24.72 20.87 23C20.87 21.27 22.27 19.87 24 19.87C25.72 19.87 27.12 21.27 27.12 23C27.12 24.72 25.72 26.12 24 26.12Z" fill="url(#paint_linear_44_11561_0)" fill-opacity="1.000000" fill-rule="nonzero"/>
		<path id="Vector" d="M30.03 17.62C30.03 17.99 29.74 18.29 29.37 18.29C29 18.29 28.7 17.99 28.7 17.62C28.7 17.25 29 16.95 29.37 16.95C29.74 16.95 30.03 17.25 30.03 17.62Z" fill="url(#paint_linear_44_11562_0)" fill-opacity="1.000000" fill-rule="evenodd"/>
	</g>
	<path id="Instagram" d="M46.11 8.81L47.65 8.81L47.65 19L46.11 19L46.11 8.81ZM67.63 11.36L69.2 11.36L69.2 12.55L67.63 12.55L67.63 16.75C67.63 17.61 68.06 17.77 68.55 17.77C68.79 17.77 68.97 17.73 69.07 17.71L69.34 18.94C69.16 19 68.84 19.09 68.37 19.09C67.2 19.12 66.14 18.45 66.14 17.06L66.14 12.55L65.03 12.55L65.03 11.36L66.14 11.36L66.14 9.53L67.63 9.53L67.63 11.36ZM88.93 19L87.45 19L87.45 11.36L88.89 11.36L88.89 12.57L88.96 12.57C89.24 11.75 90.01 11.24 90.9 11.24C91.09 11.24 91.38 11.26 91.53 11.28L91.53 12.7C91.41 12.66 91.07 12.61 90.76 12.61C89.71 12.61 88.93 13.33 88.93 14.33L88.93 19ZM53.03 12.55C52 12.55 51.25 13.24 51.25 14.46L51.25 19L49.77 19L49.77 11.36L51.2 11.36L51.2 12.6L51.29 12.6C51.64 11.79 52.39 11.26 53.54 11.26C55.1 11.26 56.14 12.25 56.14 14.14L56.14 19L54.65 19L54.65 14.32C54.65 13.21 54.04 12.55 53.03 12.55ZM60.96 11.26C62.61 11.26 63.54 12.04 63.85 13.22L62.5 13.46C62.33 12.95 61.9 12.44 60.98 12.44C60.14 12.44 59.5 12.86 59.5 13.44C59.5 13.96 59.86 14.24 60.7 14.44L61.91 14.72C63.31 15.04 64 15.71 64 16.79C64 18.17 62.72 19.15 60.88 19.15C59.16 19.15 58.04 18.39 57.79 17.04L59.23 16.82C59.41 17.57 59.98 17.95 60.87 17.95C61.84 17.95 62.48 17.49 62.48 16.9C62.48 16.42 62.13 16.09 61.4 15.93L60.1 15.65C58.67 15.33 58.02 14.61 58.02 13.52C58.02 12.17 59.24 11.26 60.96 11.26ZM75.32 17.95C75.03 18.52 74.32 19.16 73.06 19.16C71.61 19.16 70.48 18.34 70.48 16.84C70.48 15.1 71.96 14.73 73.41 14.56C74.78 14.4 75.34 14.4 75.34 13.86L75.34 13.83C75.34 12.97 74.85 12.46 73.88 12.46C72.89 12.46 72.33 12.98 72.11 13.53L70.71 13.21C71.21 11.82 72.48 11.26 73.86 11.26C75.08 11.26 76.83 11.7 76.83 13.92L76.83 19L75.38 19L75.38 17.95L75.32 17.95ZM85.45 19.16C85.45 21.13 83.95 22.02 82.01 22.02C80.18 22.02 79.16 21.22 78.76 20.29L80.04 19.76C80.3 20.2 80.78 20.82 82.02 20.82C83.15 20.82 83.97 20.3 83.97 19.1L83.97 17.6L83.88 17.6C83.61 18.09 83.07 18.88 81.67 18.88C79.86 18.88 78.47 17.58 78.47 15.15C78.47 12.72 79.83 11.26 81.68 11.26C83.1 11.26 83.62 12.12 83.89 12.6L84 12.6L84 11.36L85.45 11.36L85.45 19.16ZM97.24 17.95C96.95 18.52 96.24 19.16 94.98 19.16C93.53 19.16 92.4 18.34 92.4 16.84C92.4 15.1 93.88 14.73 95.33 14.56C96.7 14.4 97.26 14.4 97.26 13.86L97.26 13.83C97.26 12.97 96.77 12.46 95.8 12.46C94.81 12.46 94.25 12.98 94.03 13.53L92.63 13.21C93.13 11.82 94.4 11.26 95.78 11.26C97 11.26 98.75 11.7 98.75 13.92L98.75 19L97.29 19L97.29 17.95L97.24 17.95ZM102.21 19L100.73 19L100.73 11.36L102.15 11.36L102.15 12.6L102.25 12.6C102.57 11.76 103.32 11.26 104.32 11.26C105.35 11.26 106.05 11.77 106.38 12.6L106.46 12.6C106.83 11.79 107.65 11.26 108.75 11.26C110.13 11.26 111.11 12.13 111.11 13.87L111.11 19L109.62 19L109.62 14.02C109.62 12.98 108.97 12.54 108.19 12.54C107.22 12.54 106.66 13.21 106.66 14.13L106.66 19L105.18 19L105.18 13.92C105.18 13.09 104.61 12.54 103.78 12.54C102.93 12.54 102.21 13.26 102.21 14.29L102.21 19ZM79.97 15.13C79.97 16.63 80.66 17.65 81.99 17.65C83.28 17.65 83.99 16.7 83.99 15.13C83.99 13.58 83.29 12.52 81.99 12.52C80.65 12.52 79.97 13.66 79.97 15.13ZM71.94 16.86C71.94 17.59 72.54 17.97 73.38 17.97C74.62 17.97 75.34 17.15 75.34 16.24L75.34 15.26C75.13 15.47 73.98 15.6 73.5 15.66C72.64 15.78 71.94 16.06 71.94 16.86ZM93.86 16.86C93.86 17.59 94.46 17.97 95.3 17.97C96.54 17.97 97.26 17.15 97.26 16.24L97.26 15.26C97.05 15.47 95.9 15.6 95.42 15.66C94.56 15.78 93.86 16.06 93.86 16.86Z" fill="#282739" fill-opacity="1.000000" fill-rule="evenodd"/>
	<path id="10 602" d="M75.39 35L70.46 35L73.77 31.46Q74 31.22 74.16 30.97Q74.32 30.73 74.41 30.47Q74.42 30.44 74.43 30.4Q74.5 30.18 74.5 29.93Q74.5 29.87 74.49 29.81Q74.47 29.64 74.41 29.48Q74.39 29.45 74.38 29.42Q74.29 29.24 74.14 29.09Q73.97 28.91 73.71 28.8Q73.47 28.68 73.15 28.68Q72.7 28.68 72.38 28.88Q72.37 28.89 72.37 28.89Q72.29 28.94 72.23 28.99Q72.01 29.18 71.87 29.48Q71.71 29.87 71.71 30.4L70.86 30.4Q70.86 29.65 71.12 29.08Q71.29 28.73 71.55 28.48Q71.72 28.32 71.91 28.2Q72.43 27.89 73.15 27.89Q73.72 27.89 74.14 28.08Q74.56 28.27 74.84 28.58Q75.11 28.88 75.24 29.24Q75.36 29.58 75.36 29.9Q75.36 29.95 75.36 29.99Q75.34 30.49 75.1 30.97Q74.97 31.25 74.8 31.49Q74.63 31.72 74.43 31.93L72.21 34.19L75.39 34.19L75.39 35ZM47.35 28.92L45.8 29.37L45.8 28.5L48.2 27.9L48.2 35L47.35 35L47.35 28.92ZM50.23 33.35Q49.9 32.54 49.9 31.49Q49.9 30.44 50.23 29.64Q50.55 28.83 51.14 28.36Q51.39 28.16 51.68 28.05Q52.06 27.9 52.5 27.9Q52.93 27.9 53.31 28.05Q53.6 28.16 53.85 28.36Q54.43 28.83 54.76 29.64Q55.1 30.44 55.1 31.49Q55.1 32.54 54.76 33.35Q54.43 34.16 53.85 34.63Q53.6 34.83 53.31 34.94Q52.94 35.1 52.5 35.1Q52.05 35.1 51.67 34.94Q51.39 34.83 51.14 34.63Q50.55 34.16 50.23 33.35ZM64.99 33.35Q64.66 32.54 64.66 31.49Q64.66 30.44 64.99 29.64Q65.31 28.83 65.9 28.36Q66.15 28.16 66.44 28.05Q66.82 27.9 67.26 27.9Q67.69 27.9 68.07 28.05Q68.36 28.16 68.61 28.36Q69.19 28.83 69.52 29.64Q69.86 30.44 69.86 31.49Q69.86 32.54 69.52 33.35Q69.19 34.16 68.61 34.63Q68.36 34.83 68.07 34.94Q67.7 35.1 67.26 35.1Q66.81 35.1 66.43 34.94Q66.15 34.83 65.9 34.63Q65.31 34.16 64.99 33.35ZM59.43 31.25L61.8 28L62.87 28L60.91 30.58Q60.97 30.55 61.03 30.52Q61.05 30.51 61.08 30.51Q61.34 30.42 61.69 30.42Q62.01 30.42 62.3 30.52Q62.39 30.55 62.49 30.6Q62.63 30.66 62.76 30.75Q62.97 30.88 63.15 31.07Q63.19 31.12 63.22 31.16Q63.46 31.44 63.59 31.8Q63.75 32.21 63.75 32.7Q63.75 33.41 63.45 33.94Q63.44 33.95 63.44 33.96Q63.26 34.26 63.01 34.49Q62.82 34.66 62.59 34.79Q62.53 34.83 62.46 34.86Q61.97 35.1 61.38 35.1Q60.82 35.1 60.36 34.89Q60.26 34.85 60.16 34.79Q59.92 34.66 59.72 34.47Q59.48 34.25 59.31 33.96Q59.31 33.95 59.3 33.94Q59 33.41 59 32.7Q59 32.27 59.12 31.9Q59.23 31.53 59.43 31.25ZM50.86 30.37Q50.75 30.89 50.75 31.49Q50.75 32.1 50.86 32.62Q50.98 33.13 51.21 33.51Q51.45 33.88 51.77 34.09Q51.89 34.16 52.02 34.21Q52.24 34.29 52.5 34.29Q52.8 34.29 53.05 34.18Q53.14 34.14 53.23 34.09Q53.55 33.88 53.77 33.51Q54 33.13 54.12 32.62Q54.25 32.1 54.25 31.49Q54.25 30.89 54.12 30.37Q54 29.86 53.77 29.48Q53.55 29.1 53.23 28.9Q53.14 28.85 53.05 28.81Q52.8 28.7 52.5 28.7Q52.24 28.7 52.02 28.78Q51.89 28.83 51.77 28.9Q51.45 29.1 51.21 29.48Q50.98 29.86 50.86 30.37ZM65.62 30.37Q65.51 30.89 65.51 31.49Q65.51 32.1 65.62 32.62Q65.74 33.13 65.97 33.51Q66.21 33.88 66.53 34.09Q66.65 34.16 66.78 34.21Q67 34.29 67.26 34.29Q67.56 34.29 67.81 34.18Q67.9 34.14 67.99 34.09Q68.31 33.88 68.53 33.51Q68.76 33.13 68.88 32.62Q69.01 32.1 69.01 31.49Q69.01 30.89 68.88 30.37Q68.76 29.86 68.53 29.48Q68.31 29.1 67.99 28.9Q67.9 28.85 67.81 28.81Q67.56 28.7 67.26 28.7Q67 28.7 66.78 28.78Q66.65 28.83 66.53 28.9Q66.21 29.1 65.97 29.48Q65.74 29.86 65.62 30.37ZM60 31.87Q59.81 32.23 59.81 32.7Q59.81 33.18 60.01 33.54L60.01 33.54Q60.12 33.74 60.28 33.9Q60.41 34.02 60.57 34.12Q60.63 34.15 60.7 34.18Q61 34.33 61.38 34.33Q61.74 34.33 62.04 34.19Q62.11 34.16 62.18 34.12Q62.34 34.02 62.48 33.89Q62.63 33.74 62.74 33.54L62.74 33.54Q62.95 33.18 62.95 32.7Q62.95 32.23 62.76 31.87Q62.75 31.85 62.74 31.84Q62.61 31.61 62.43 31.44Q62.31 31.33 62.18 31.25Q62.11 31.21 62.04 31.18Q61.74 31.04 61.38 31.04Q61 31.04 60.7 31.19Q60.63 31.22 60.57 31.25Q60.44 31.33 60.34 31.43Q60.14 31.6 60.01 31.84Q60 31.85 60 31.87Z" fill="#5D6C7B" fill-opacity="1.000000" fill-rule="evenodd"/>
</svg>
