<svg width="123.000000" height="45.000000" viewBox="0 0 123 45" fill="none" xmlns="http://www.w3.org/2000/svg" xmlns:xlink="http://www.w3.org/1999/xlink">
	<desc>
			Created with Pixso.
	</desc>
	<defs>
		<clipPath id="clip44_11575">
			<rect id="003-telegram 2" width="20.000000" height="20.000000" transform="translate(12.000000 13.000000)" fill="white" fill-opacity="0"/>
		</clipPath>
	</defs>
	<rect id="Rectangle 183" rx="5.000000" width="123.000000" height="45.000000" fill="#FFFFFF" fill-opacity="1.000000"/>
	<rect id="003-telegram 2" width="20.000000" height="20.000000" transform="translate(12.000000 13.000000)" fill="#FFFFFF" fill-opacity="0"/>
	<g clip-path="url(#clip44_11575)">
		<path id="Vector" d="M19.84 25.65L19.51 30.3C19.98 30.3 20.19 30.1 20.44 29.85L22.66 27.73L27.25 31.1C28.1 31.57 28.69 31.32 28.92 30.32L31.94 16.18L31.94 16.18C32.21 14.93 31.49 14.44 30.67 14.75L12.92 21.54C11.71 22.01 11.73 22.69 12.72 22.99L17.25 24.4L27.79 17.81C28.28 17.48 28.74 17.66 28.37 17.99L19.84 25.65Z" fill="#039BE5" fill-opacity="1.000000" fill-rule="nonzero"/>
	</g>
	<path id="Telegram" d="M48.78 10.14L45.61 10.14L45.61 8.81L53.49 8.81L53.49 10.14L50.31 10.14L50.31 19L48.78 19L48.78 10.14ZM62.22 8.81L63.7 8.81L63.7 19L62.22 19L62.22 8.81ZM84.05 19L82.56 19L82.56 11.36L84 11.36L84 12.57L84.08 12.57C84.36 11.75 85.12 11.24 86.02 11.24C86.21 11.24 86.5 11.26 86.65 11.28L86.65 12.7C86.53 12.66 86.18 12.61 85.88 12.61C84.82 12.61 84.05 13.33 84.05 14.33L84.05 19ZM60.47 17.08C60.13 18.33 58.95 19.15 57.28 19.15C55.03 19.15 53.65 17.6 53.65 15.23C53.65 12.88 55.05 11.26 57.18 11.26C58.91 11.26 60.56 12.34 60.56 15.1L60.56 15.62L55.13 15.62C55.17 17.09 56.03 17.92 57.3 17.92C58.15 17.92 58.79 17.55 59.06 16.83L60.47 17.08ZM72.17 17.08C71.84 18.33 70.66 19.15 68.99 19.15C66.74 19.15 65.36 17.6 65.36 15.23C65.36 12.88 66.76 11.26 68.89 11.26C70.62 11.26 72.27 12.34 72.27 15.1L72.27 15.62L66.84 15.62C66.88 17.09 67.73 17.92 69.01 17.92C69.85 17.92 70.5 17.55 70.77 16.83L72.17 17.08ZM80.57 19.16C80.57 21.13 79.07 22.02 77.13 22.02C75.3 22.02 74.28 21.22 73.88 20.29L75.16 19.76C75.42 20.2 75.9 20.82 77.14 20.82C78.27 20.82 79.09 20.3 79.09 19.1L79.09 17.6L79 17.6C78.73 18.09 78.19 18.88 76.78 18.88C74.98 18.88 73.59 17.58 73.59 15.15C73.59 12.72 74.95 11.26 76.79 11.26C78.22 11.26 78.74 12.12 79.01 12.6L79.12 12.6L79.12 11.36L80.57 11.36L80.57 19.16ZM92.35 17.95C92.07 18.52 91.36 19.16 90.1 19.16C88.65 19.16 87.52 18.34 87.52 16.84C87.52 15.1 89 14.73 90.44 14.56C91.82 14.4 92.38 14.4 92.38 13.86L92.38 13.83C92.38 12.97 91.88 12.46 90.92 12.46C89.92 12.46 89.37 12.98 89.15 13.53L87.75 13.21C88.25 11.82 89.52 11.26 90.9 11.26C92.12 11.26 93.87 11.7 93.87 13.92L93.87 19L92.41 19L92.41 17.95L92.35 17.95ZM97.33 19L95.84 19L95.84 11.36L97.27 11.36L97.27 12.6L97.36 12.6C97.69 11.76 98.43 11.26 99.44 11.26C100.46 11.26 101.17 11.77 101.5 12.6L101.58 12.6C101.94 11.79 102.77 11.26 103.87 11.26C105.25 11.26 106.22 12.13 106.22 13.87L106.22 19L104.74 19L104.74 14.02C104.74 12.98 104.09 12.54 103.31 12.54C102.34 12.54 101.78 13.21 101.78 14.13L101.78 19L100.29 19L100.29 13.92C100.29 13.09 99.72 12.54 98.9 12.54C98.05 12.54 97.33 13.26 97.33 14.29L97.33 19ZM57.19 12.49C55.98 12.49 55.2 13.43 55.14 14.51L59.11 14.51C59.1 13.34 58.34 12.49 57.19 12.49ZM68.9 12.49C67.69 12.49 66.9 13.43 66.85 14.51L70.81 14.51C70.81 13.34 70.05 12.49 68.9 12.49ZM75.09 15.13C75.09 16.63 75.78 17.65 77.11 17.65C78.39 17.65 79.11 16.7 79.11 15.13C79.11 13.58 78.41 12.52 77.11 12.52C75.77 12.52 75.09 13.66 75.09 15.13ZM88.97 16.86C88.97 17.59 89.58 17.97 90.42 17.97C91.66 17.97 92.38 17.15 92.38 16.24L92.38 15.26C92.17 15.47 91.02 15.6 90.54 15.66C89.68 15.78 88.97 16.06 88.97 16.86Z" fill="#282739" fill-opacity="1.000000" fill-rule="evenodd"/>
	<path id="432" d="M61.42 35L56.49 35L59.8 31.46Q60.03 31.22 60.19 30.97Q60.35 30.73 60.44 30.47Q60.45 30.44 60.46 30.4Q60.53 30.18 60.53 29.93Q60.53 29.87 60.52 29.81Q60.5 29.64 60.44 29.48Q60.42 29.45 60.41 29.42Q60.32 29.24 60.17 29.09Q60 28.91 59.74 28.8Q59.5 28.68 59.18 28.68Q58.73 28.68 58.41 28.88Q58.4 28.89 58.4 28.89Q58.32 28.94 58.26 28.99Q58.04 29.18 57.9 29.48Q57.74 29.87 57.74 30.4L56.89 30.4Q56.89 29.65 57.15 29.08Q57.32 28.73 57.58 28.48Q57.75 28.32 57.94 28.2Q58.46 27.89 59.18 27.89Q59.75 27.89 60.17 28.08Q60.59 28.27 60.87 28.58Q61.14 28.88 61.27 29.24Q61.39 29.58 61.39 29.9Q61.39 29.95 61.39 29.99Q61.37 30.49 61.13 30.97Q61 31.25 60.83 31.49Q60.66 31.72 60.46 31.93L58.24 34.19L61.42 34.19L61.42 35ZM53.35 31.55L53.35 31Q53.7 31 53.95 30.9Q54.22 30.81 54.39 30.64Q54.51 30.54 54.59 30.41Q54.64 30.34 54.67 30.26Q54.7 30.19 54.72 30.11Q54.77 29.96 54.77 29.79Q54.77 29.46 54.65 29.2Q54.58 29.05 54.47 28.94Q54.39 28.86 54.29 28.81Q54.06 28.66 53.71 28.66Q53.39 28.66 53.14 28.79Q53 28.86 52.87 28.97Q52.71 29.12 52.62 29.3Q52.53 29.5 52.53 29.74L51.73 29.74Q51.73 29.23 51.94 28.84Q51.96 28.81 51.98 28.77Q52.07 28.63 52.19 28.5Q52.4 28.28 52.68 28.13Q53.12 27.9 53.7 27.9Q54.29 27.9 54.73 28.16Q55.03 28.34 55.24 28.6Q55.33 28.71 55.4 28.84Q55.48 28.98 55.53 29.13Q55.63 29.43 55.63 29.76Q55.63 29.96 55.58 30.15Q55.51 30.42 55.34 30.65Q55.33 30.68 55.31 30.71Q55.02 31.08 54.55 31.31Q54.5 31.33 54.46 31.35Q54.81 31.46 55.1 31.65Q55.26 31.76 55.39 31.9Q55.54 32.06 55.64 32.26Q55.83 32.62 55.83 33.14Q55.83 33.65 55.63 34.04Q55.59 34.11 55.55 34.17Q55.45 34.33 55.33 34.45Q55.1 34.7 54.78 34.86Q54.28 35.1 53.65 35.1Q53.14 35.1 52.73 34.95Q52.32 34.79 52.03 34.53Q51.87 34.38 51.75 34.21Q51.66 34.07 51.58 33.91Q51.55 33.83 51.52 33.76Q51.43 33.47 51.43 33.14L52.29 33.14Q52.29 33.36 52.36 33.54Q52.4 33.64 52.46 33.74Q52.48 33.77 52.51 33.81Q52.68 34.02 52.94 34.15Q53.25 34.29 53.65 34.29Q54.06 34.29 54.35 34.14Q54.54 34.04 54.67 33.89Q54.75 33.81 54.8 33.71Q54.97 33.43 54.97 33.04Q54.97 32.72 54.84 32.48Q54.78 32.36 54.7 32.27Q54.61 32.16 54.49 32.07Q54.27 31.9 53.98 31.83Q53.7 31.75 53.35 31.75L53.35 31.55ZM48.57 33.6L45.2 33.6L49.07 28L49.43 28L49.43 32.84L50.52 32.84L50.52 33.6L49.43 33.6L49.43 35L48.57 35L48.57 33.6ZM48.57 32.84L46.59 32.84L48.57 29.89L48.57 32.84Z" fill="#5D6C7B" fill-opacity="1.000000" fill-rule="evenodd"/>
</svg>
