<svg width="123.000000" height="45.000000" viewBox="0 0 123 45" fill="none" xmlns="http://www.w3.org/2000/svg" xmlns:xlink="http://www.w3.org/1999/xlink">
	<desc>
			Created with Pixso.
	</desc>
	<defs>
		<clipPath id="clip44_11555">
			<rect id="012-vk 1" width="20.000000" height="20.000000" transform="translate(12.000000 13.000000)" fill="white" fill-opacity="0"/>
		</clipPath>
	</defs>
	<rect id="Rectangle 183" rx="5.000000" width="123.000000" height="45.000000" fill="#FFFFFF" fill-opacity="1.000000"/>
	<rect id="012-vk 1" width="20.000000" height="20.000000" transform="translate(12.000000 13.000000)" fill="#FFFFFF" fill-opacity="0"/>
	<g clip-path="url(#clip44_11555)">
		<path id="Vector" d="M28.59 23.85C28.27 23.44 28.36 23.26 28.59 22.9C28.6 22.89 31.26 19.2 31.54 17.95L31.54 17.95C31.68 17.5 31.54 17.16 30.88 17.16L28.69 17.16C28.14 17.16 27.88 17.45 27.74 17.77C27.74 17.77 26.63 20.44 25.05 22.16C24.55 22.66 24.31 22.82 24.03 22.82C23.9 22.82 23.68 22.66 23.68 22.21L23.68 17.95C23.68 17.41 23.53 17.16 23.07 17.16L19.63 17.16C19.28 17.16 19.07 17.42 19.07 17.65C19.07 18.17 19.86 18.29 19.94 19.75L19.94 22.91C19.94 23.61 19.82 23.74 19.54 23.74C18.79 23.74 16.99 21.06 15.92 18C15.71 17.4 15.5 17.16 14.93 17.16L12.75 17.16C12.12 17.16 12 17.45 12 17.77C12 18.34 12.74 21.17 15.45 24.9C17.26 27.45 19.81 28.83 22.12 28.83C23.51 28.83 23.69 28.52 23.69 27.99C23.69 25.56 23.56 25.33 24.26 25.33C24.58 25.33 25.14 25.49 26.44 26.72C27.92 28.18 28.17 28.83 29 28.83L31.19 28.83C31.81 28.83 32.12 28.52 31.94 27.92C31.53 26.64 28.72 24.03 28.59 23.85Z" fill="#4B729F" fill-opacity="1.000000" fill-rule="nonzero"/>
	</g>
	<path id="Вконтакте" d="M52.14 10.56C51.48 10.18 50.52 10 49.25 10L46.32 10L46.32 20L49.91 20Q51.53 20 52.48 19.25Q52.82 18.98 53.04 18.64Q53.44 18.02 53.44 17.14C53.44 16.62 53.34 16.19 53.16 15.87C52.97 15.55 52.72 15.3 52.39 15.12C52.07 14.95 51.71 14.82 51.32 14.76L51.32 14.69C51.9 14.59 52.35 14.34 52.66 13.96Q52.73 13.87 52.79 13.77Q53.13 13.24 53.13 12.49Q53.13 11.55 52.67 11Q52.46 10.74 52.14 10.56ZM51.12 13.79C50.83 14.05 50.29 14.17 49.5 14.17L47.84 14.17L47.84 11.27L49.34 11.27Q50.5 11.27 51.03 11.6Q51.2 11.71 51.32 11.86Q51.56 12.17 51.56 12.67Q51.56 13.29 51.26 13.65Q51.2 13.73 51.12 13.79ZM68.53 19.11C69.17 18.43 69.5 17.47 69.5 16.21Q69.5 14.95 69.04 14.09C68.74 13.51 68.32 13.07 67.79 12.77Q67.75 12.74 67.7 12.72Q66.94 12.31 65.97 12.31Q64.71 12.31 63.86 12.89Q63.59 13.08 63.36 13.32C62.73 14 62.41 14.96 62.41 16.21Q62.41 17.46 62.87 18.34C63.17 18.92 63.58 19.37 64.11 19.67Q64.2 19.73 64.3 19.78Q65.02 20.14 65.92 20.14Q67.13 20.14 67.97 19.58Q68.27 19.38 68.53 19.11ZM92.42 12.93C91.95 12.52 91.24 12.31 90.3 12.31C89.8 12.31 89.31 12.37 88.85 12.5C88.39 12.62 87.98 12.78 87.63 12.97L88.1 14.04C88.43 13.89 88.77 13.75 89.12 13.64C89.48 13.53 89.85 13.47 90.23 13.47C90.69 13.47 91.04 13.59 91.29 13.82Q91.67 14.16 91.67 14.98L91.67 15.4L90.38 15.45Q88.58 15.5 87.71 16.1C87.13 16.5 86.84 17.09 86.84 17.85C86.84 18.64 87.06 19.21 87.51 19.58C87.96 19.95 88.53 20.14 89.21 20.14Q90.16 20.14 90.7 19.85C91.06 19.66 91.4 19.36 91.73 18.95L91.78 18.95L92.08 20L93.13 20L93.13 14.89Q93.13 13.64 92.5 13.01Q92.46 12.97 92.42 12.93ZM114.88 12.83Q114.12 12.31 113.01 12.31Q112.07 12.31 111.35 12.7Q111.29 12.74 111.22 12.78C110.71 13.09 110.32 13.54 110.03 14.13C109.75 14.72 109.61 15.44 109.61 16.29C109.61 17.12 109.76 17.83 110.07 18.41Q110.37 18.94 110.8 19.31Q111.06 19.54 111.38 19.7C111.93 19.99 112.58 20.14 113.31 20.14Q114.11 20.14 114.69 20.01C115.07 19.92 115.45 19.8 115.84 19.63L115.84 18.4Q115.23 18.67 114.67 18.8C114.29 18.89 113.86 18.93 113.37 18.93Q112.51 18.93 111.96 18.52Q111.85 18.43 111.74 18.32C111.35 17.9 111.15 17.31 111.13 16.54L116.2 16.54L116.2 15.73C116.2 14.67 115.91 13.84 115.34 13.23Q115.13 13 114.88 12.83ZM61.57 12.45L59.95 12.45L56.82 16.12L56.82 12.45L55.34 12.45L55.34 20L56.82 20L56.82 16.17L60.13 20L61.84 20L58.42 16.07L61.57 12.45ZM72.85 15.51L72.85 12.45L71.37 12.45L71.37 20L72.85 20L72.85 16.7L76.58 16.7L76.58 20L78.06 20L78.06 12.45L76.58 12.45L76.58 15.51L72.85 15.51ZM83.44 13.64L85.9 13.64L85.9 12.45L79.52 12.45L79.52 13.64L81.97 13.64L81.97 20L83.44 20L83.44 13.64ZM101.64 12.45L100.02 12.45L96.89 16.12L96.89 12.45L95.41 12.45L95.41 20L96.89 20L96.89 16.17L100.2 20L101.91 20L98.49 16.07L101.64 12.45ZM106.25 13.64L108.71 13.64L108.71 12.45L102.33 12.45L102.33 13.64L104.78 13.64L104.78 20L106.25 20L106.25 13.64ZM112.07 13.69Q112.47 13.46 113.01 13.46Q113.67 13.46 114.07 13.78Q114.19 13.88 114.29 14.01C114.56 14.38 114.71 14.86 114.72 15.45L111.16 15.45Q111.24 14.49 111.72 13.98Q111.88 13.81 112.07 13.69ZM64.42 18.2C64.1 17.73 63.94 17.06 63.94 16.21Q63.94 14.93 64.41 14.24Q64.53 14.06 64.7 13.92Q65.16 13.54 65.94 13.54Q66.71 13.54 67.18 13.92Q67.35 14.05 67.48 14.24Q67.97 14.93 67.97 16.21C67.97 17.06 67.81 17.73 67.48 18.2C67.16 18.68 66.65 18.92 65.95 18.92C65.25 18.92 64.74 18.68 64.42 18.2ZM47.84 18.73L47.84 15.4L49.57 15.4Q50.85 15.4 51.34 15.85C51.67 16.14 51.84 16.52 51.84 17C51.84 17.52 51.68 17.94 51.36 18.26C51.03 18.58 50.47 18.73 49.67 18.73L47.84 18.73ZM88.86 16.83C89.2 16.58 89.79 16.43 90.65 16.4L91.66 16.37L91.66 17.03C91.66 17.68 91.46 18.17 91.07 18.5C90.69 18.82 90.2 18.99 89.63 18.99C89.25 18.99 88.95 18.9 88.72 18.72C88.48 18.54 88.37 18.26 88.37 17.87C88.37 17.42 88.53 17.07 88.86 16.83Z" fill="#282739" fill-opacity="1.000000" fill-rule="evenodd"/>
	<path id="3 300" d="M47.52 31.55L47.52 31Q47.87 31 48.12 30.9Q48.39 30.81 48.56 30.64Q48.68 30.54 48.76 30.41Q48.81 30.34 48.84 30.26Q48.87 30.19 48.89 30.11Q48.94 29.96 48.94 29.79Q48.94 29.46 48.82 29.2Q48.75 29.05 48.64 28.94Q48.56 28.86 48.46 28.81Q48.23 28.66 47.88 28.66Q47.56 28.66 47.31 28.79Q47.17 28.86 47.04 28.97Q46.88 29.12 46.79 29.3Q46.7 29.5 46.7 29.74L45.9 29.74Q45.9 29.23 46.11 28.84Q46.13 28.81 46.15 28.77Q46.24 28.63 46.36 28.5Q46.57 28.28 46.85 28.13Q47.29 27.9 47.87 27.9Q48.46 27.9 48.9 28.16Q49.2 28.34 49.41 28.6Q49.5 28.71 49.57 28.84Q49.65 28.98 49.7 29.13Q49.8 29.43 49.8 29.76Q49.8 29.96 49.75 30.15Q49.68 30.42 49.51 30.65Q49.5 30.68 49.48 30.71Q49.19 31.08 48.72 31.31Q48.67 31.33 48.63 31.35Q48.98 31.46 49.27 31.65Q49.43 31.76 49.56 31.9Q49.71 32.06 49.81 32.26Q50 32.62 50 33.14Q50 33.65 49.8 34.04Q49.76 34.11 49.72 34.17Q49.62 34.33 49.5 34.45Q49.27 34.7 48.95 34.86Q48.45 35.1 47.82 35.1Q47.31 35.1 46.9 34.95Q46.49 34.79 46.2 34.53Q46.04 34.38 45.92 34.21Q45.83 34.07 45.75 33.91Q45.72 33.83 45.69 33.76Q45.6 33.47 45.6 33.14L46.46 33.14Q46.46 33.36 46.53 33.54Q46.57 33.64 46.63 33.74Q46.65 33.77 46.68 33.81Q46.85 34.02 47.11 34.15Q47.42 34.29 47.82 34.29Q48.23 34.29 48.52 34.14Q48.71 34.04 48.84 33.89Q48.92 33.81 48.97 33.71Q49.14 33.43 49.14 33.04Q49.14 32.72 49.01 32.48Q48.95 32.36 48.87 32.27Q48.78 32.16 48.66 32.07Q48.44 31.9 48.15 31.83Q47.87 31.75 47.52 31.75L47.52 31.55ZM55.98 31.55L55.98 31Q56.33 31 56.58 30.9Q56.85 30.81 57.02 30.64Q57.14 30.54 57.22 30.41Q57.27 30.34 57.3 30.26Q57.33 30.19 57.35 30.11Q57.4 29.96 57.4 29.79Q57.4 29.46 57.28 29.2Q57.21 29.05 57.1 28.94Q57.02 28.86 56.92 28.81Q56.69 28.66 56.34 28.66Q56.02 28.66 55.77 28.79Q55.63 28.86 55.5 28.97Q55.34 29.12 55.25 29.3Q55.16 29.5 55.16 29.74L54.36 29.74Q54.36 29.23 54.57 28.84Q54.59 28.81 54.61 28.77Q54.7 28.63 54.82 28.5Q55.03 28.28 55.31 28.13Q55.75 27.9 56.33 27.9Q56.92 27.9 57.36 28.16Q57.66 28.34 57.87 28.6Q57.96 28.71 58.03 28.84Q58.11 28.98 58.16 29.13Q58.26 29.43 58.26 29.76Q58.26 29.96 58.21 30.15Q58.14 30.42 57.97 30.65Q57.96 30.68 57.94 30.71Q57.65 31.08 57.18 31.31Q57.13 31.33 57.09 31.35Q57.44 31.46 57.73 31.65Q57.89 31.76 58.02 31.9Q58.17 32.06 58.27 32.26Q58.46 32.62 58.46 33.14Q58.46 33.65 58.26 34.04Q58.22 34.11 58.18 34.17Q58.08 34.33 57.96 34.45Q57.73 34.7 57.41 34.86Q56.91 35.1 56.28 35.1Q55.77 35.1 55.36 34.95Q54.95 34.79 54.66 34.53Q54.5 34.38 54.38 34.21Q54.29 34.07 54.21 33.91Q54.18 33.83 54.15 33.76Q54.06 33.47 54.06 33.14L54.92 33.14Q54.92 33.36 54.99 33.54Q55.03 33.64 55.09 33.74Q55.11 33.77 55.14 33.81Q55.31 34.02 55.57 34.15Q55.88 34.29 56.28 34.29Q56.69 34.29 56.98 34.14Q57.17 34.04 57.3 33.89Q57.38 33.81 57.43 33.71Q57.6 33.43 57.6 33.04Q57.6 32.72 57.47 32.48Q57.41 32.36 57.33 32.27Q57.24 32.16 57.12 32.07Q56.9 31.9 56.61 31.83Q56.33 31.75 55.98 31.75L55.98 31.55ZM59.65 33.35Q59.32 32.54 59.32 31.49Q59.32 30.44 59.65 29.64Q59.97 28.83 60.56 28.36Q60.81 28.16 61.1 28.05Q61.48 27.9 61.92 27.9Q62.35 27.9 62.73 28.05Q63.02 28.16 63.27 28.36Q63.85 28.83 64.18 29.64Q64.52 30.44 64.52 31.49Q64.52 32.54 64.18 33.35Q63.85 34.16 63.27 34.63Q63.02 34.83 62.73 34.94Q62.36 35.1 61.92 35.1Q61.47 35.1 61.09 34.94Q60.81 34.83 60.56 34.63Q59.97 34.16 59.65 33.35ZM65.65 33.35Q65.32 32.54 65.32 31.49Q65.32 30.44 65.65 29.64Q65.97 28.83 66.56 28.36Q66.81 28.16 67.1 28.05Q67.48 27.9 67.92 27.9Q68.35 27.9 68.73 28.05Q69.02 28.16 69.27 28.36Q69.85 28.83 70.18 29.64Q70.52 30.44 70.52 31.49Q70.52 32.54 70.18 33.35Q69.85 34.16 69.27 34.63Q69.02 34.83 68.73 34.94Q68.36 35.1 67.92 35.1Q67.47 35.1 67.09 34.94Q66.81 34.83 66.56 34.63Q65.97 34.16 65.65 33.35ZM60.28 30.37Q60.17 30.89 60.17 31.49Q60.17 32.1 60.28 32.62Q60.4 33.13 60.63 33.51Q60.87 33.88 61.19 34.09Q61.31 34.16 61.44 34.21Q61.66 34.29 61.92 34.29Q62.22 34.29 62.47 34.18Q62.56 34.14 62.65 34.09Q62.97 33.88 63.19 33.51Q63.42 33.13 63.54 32.62Q63.67 32.1 63.67 31.49Q63.67 30.89 63.54 30.37Q63.42 29.86 63.19 29.48Q62.97 29.1 62.65 28.9Q62.56 28.85 62.47 28.81Q62.22 28.7 61.92 28.7Q61.66 28.7 61.44 28.78Q61.31 28.83 61.19 28.9Q60.87 29.1 60.63 29.48Q60.4 29.86 60.28 30.37ZM66.28 30.37Q66.17 30.89 66.17 31.49Q66.17 32.1 66.28 32.62Q66.4 33.13 66.63 33.51Q66.87 33.88 67.19 34.09Q67.31 34.16 67.44 34.21Q67.66 34.29 67.92 34.29Q68.22 34.29 68.47 34.18Q68.56 34.14 68.65 34.09Q68.97 33.88 69.19 33.51Q69.42 33.13 69.54 32.62Q69.67 32.1 69.67 31.49Q69.67 30.89 69.54 30.37Q69.42 29.86 69.19 29.48Q68.97 29.1 68.65 28.9Q68.56 28.85 68.47 28.81Q68.22 28.7 67.92 28.7Q67.66 28.7 67.44 28.78Q67.31 28.83 67.19 28.9Q66.87 29.1 66.63 29.48Q66.4 29.86 66.28 30.37Z" fill="#5D6C7B" fill-opacity="1.000000" fill-rule="evenodd"/>
</svg>
