<svg width="123.000000" height="45.000000" viewBox="0 0 123 45" fill="none" xmlns="http://www.w3.org/2000/svg" xmlns:xlink="http://www.w3.org/1999/xlink">
	<desc>
			Created with Pixso.
	</desc>
	<defs>
		<clipPath id="clip44_11569">
			<rect id="018-youtube 1" width="20.000000" height="20.000000" transform="translate(14.000000 13.000000)" fill="white" fill-opacity="0"/>
		</clipPath>
	</defs>
	<rect id="Rectangle 183" rx="5.000000" width="123.000000" height="45.000000" fill="#FFFFFF" fill-opacity="1.000000"/>
	<rect id="018-youtube 1" width="20.000000" height="20.000000" transform="translate(14.000000 13.000000)" fill="#FFFFFF" fill-opacity="0"/>
	<g clip-path="url(#clip44_11569)">
		<path id="Vector" d="M14.43 27.89C14.84 29.34 16.09 29.6 16.17 29.65C18.23 30.21 29.75 30.22 31.84 29.65C33.27 29.24 33.53 27.97 33.58 27.89C34.12 25 34.16 21.22 33.55 17.94L33.58 18.1C33.17 16.65 31.92 16.39 31.84 16.33C29.81 15.78 18.26 15.76 16.17 16.33C14.74 16.75 14.48 18.02 14.43 18.1C13.85 21.14 13.82 24.63 14.43 27.89ZM22 26.04L22 19.96L27.23 23L22 26.04Z" fill="#E53935" fill-opacity="1.000000" fill-rule="nonzero"/>
	</g>
	<path id="YouTube" d="M49.02 15L45.33 8.81L47.07 8.81L49.73 13.44L49.84 13.44L52.5 8.81L54.25 8.81L50.55 15L50.55 19L49.02 19L49.02 15ZM73.16 10.14L69.99 10.14L69.99 8.81L77.87 8.81L77.87 10.14L74.69 10.14L74.69 19L73.16 19L73.16 10.14ZM88.35 19L86.89 19L86.89 8.81L88.38 8.81L88.38 12.6L88.47 12.6C88.73 12.12 89.25 11.26 90.66 11.26C92.51 11.26 93.87 12.72 93.87 15.19C93.87 17.66 92.53 19.15 90.68 19.15C89.29 19.15 88.74 18.29 88.47 17.81L88.35 17.81L88.35 19ZM61.11 15.21C61.11 17.57 59.71 19.15 57.55 19.15C55.4 19.15 53.99 17.57 53.99 15.21C53.99 12.84 55.4 11.26 57.55 11.26C59.71 11.26 61.11 12.84 61.11 15.21ZM102.01 17.08C101.67 18.33 100.49 19.15 98.83 19.15C96.57 19.15 95.19 17.6 95.19 15.23C95.19 12.88 96.59 11.26 98.72 11.26C100.45 11.26 102.1 12.34 102.1 15.1L102.1 15.62L96.67 15.62C96.71 17.09 97.57 17.92 98.84 17.92C99.69 17.92 100.33 17.55 100.6 16.83L102.01 17.08ZM65.81 17.74C66.65 17.74 67.61 17.13 67.61 15.83L67.61 11.36L69.1 11.36L69.1 19L67.63 19L67.63 17.67L67.56 17.67C67.2 18.49 66.42 19.09 65.27 19.09C63.81 19.09 62.77 18.11 62.77 16.22L62.77 11.36L64.25 11.36L64.25 16.04C64.25 17.08 64.89 17.74 65.81 17.74ZM81.5 17.74C82.33 17.74 83.3 17.13 83.29 15.83L83.29 11.36L84.78 11.36L84.78 19L83.32 19L83.32 17.67L83.24 17.67C82.89 18.49 82.11 19.09 80.96 19.09C79.49 19.09 78.45 18.11 78.45 16.22L78.45 11.36L79.94 11.36L79.94 16.04C79.94 17.08 80.58 17.74 81.5 17.74ZM98.73 12.49C97.52 12.49 96.74 13.43 96.68 14.51L100.65 14.51C100.64 13.34 99.89 12.49 98.73 12.49ZM55.49 15.21C55.49 16.67 56.15 17.9 57.56 17.9C58.96 17.9 59.61 16.67 59.61 15.21C59.61 13.75 58.96 12.5 57.56 12.5C56.15 12.5 55.49 13.75 55.49 15.21ZM90.35 12.52C89.05 12.52 88.35 13.58 88.35 15.18C88.35 16.78 89.07 17.88 90.35 17.88C91.67 17.88 92.37 16.71 92.37 15.18C92.37 13.66 91.69 12.52 90.35 12.52Z" fill="#282739" fill-opacity="1.000000" fill-rule="evenodd"/>
	<path id="3 603" d="M47.52 31.55L47.52 31Q47.87 31 48.12 30.9Q48.39 30.81 48.56 30.64Q48.68 30.54 48.76 30.41Q48.81 30.34 48.84 30.26Q48.87 30.19 48.89 30.11Q48.94 29.96 48.94 29.79Q48.94 29.46 48.82 29.2Q48.75 29.05 48.64 28.94Q48.56 28.86 48.46 28.81Q48.23 28.66 47.88 28.66Q47.56 28.66 47.31 28.79Q47.17 28.86 47.04 28.97Q46.88 29.12 46.79 29.3Q46.7 29.5 46.7 29.74L45.9 29.74Q45.9 29.23 46.11 28.84Q46.13 28.81 46.15 28.77Q46.24 28.63 46.36 28.5Q46.57 28.28 46.85 28.13Q47.29 27.9 47.87 27.9Q48.46 27.9 48.9 28.16Q49.2 28.34 49.41 28.6Q49.5 28.71 49.57 28.84Q49.65 28.98 49.7 29.13Q49.8 29.43 49.8 29.76Q49.8 29.96 49.75 30.15Q49.68 30.42 49.51 30.65Q49.5 30.68 49.48 30.71Q49.19 31.08 48.72 31.31Q48.67 31.33 48.63 31.35Q48.98 31.46 49.27 31.65Q49.43 31.76 49.56 31.9Q49.71 32.06 49.81 32.26Q50 32.62 50 33.14Q50 33.65 49.8 34.04Q49.76 34.11 49.72 34.17Q49.62 34.33 49.5 34.45Q49.27 34.7 48.95 34.86Q48.45 35.1 47.82 35.1Q47.31 35.1 46.9 34.95Q46.49 34.79 46.2 34.53Q46.04 34.38 45.92 34.21Q45.83 34.07 45.75 33.91Q45.72 33.83 45.69 33.76Q45.6 33.47 45.6 33.14L46.46 33.14Q46.46 33.36 46.53 33.54Q46.57 33.64 46.63 33.74Q46.65 33.77 46.68 33.81Q46.85 34.02 47.11 34.15Q47.42 34.29 47.82 34.29Q48.23 34.29 48.52 34.14Q48.71 34.04 48.84 33.89Q48.92 33.81 48.97 33.71Q49.14 33.43 49.14 33.04Q49.14 32.72 49.01 32.48Q48.95 32.36 48.87 32.27Q48.78 32.16 48.66 32.07Q48.44 31.9 48.15 31.83Q47.87 31.75 47.52 31.75L47.52 31.55ZM59.95 33.35Q59.62 32.54 59.62 31.49Q59.62 30.44 59.95 29.64Q60.27 28.83 60.86 28.36Q61.11 28.16 61.4 28.05Q61.78 27.9 62.22 27.9Q62.65 27.9 63.03 28.05Q63.32 28.16 63.57 28.36Q64.15 28.83 64.48 29.64Q64.82 30.44 64.82 31.49Q64.82 32.54 64.48 33.35Q64.15 34.16 63.57 34.63Q63.32 34.83 63.03 34.94Q62.66 35.1 62.22 35.1Q61.77 35.1 61.39 34.94Q61.11 34.83 60.86 34.63Q60.27 34.16 59.95 33.35ZM67.74 31.55L67.74 31Q68.09 31 68.34 30.9Q68.61 30.81 68.78 30.64Q68.9 30.54 68.98 30.41Q69.03 30.34 69.06 30.26Q69.09 30.19 69.11 30.11Q69.16 29.96 69.16 29.79Q69.16 29.46 69.04 29.2Q68.97 29.05 68.86 28.94Q68.78 28.86 68.68 28.81Q68.44 28.66 68.1 28.66Q67.78 28.66 67.53 28.79Q67.39 28.86 67.26 28.97Q67.1 29.12 67.01 29.3Q66.92 29.5 66.92 29.74L66.12 29.74Q66.12 29.23 66.33 28.84Q66.35 28.81 66.37 28.77Q66.46 28.63 66.58 28.5Q66.79 28.28 67.07 28.13Q67.51 27.9 68.09 27.9Q68.68 27.9 69.12 28.16Q69.42 28.34 69.63 28.6Q69.72 28.71 69.79 28.84Q69.87 28.98 69.92 29.13Q70.02 29.43 70.02 29.76Q70.02 29.96 69.97 30.15Q69.9 30.42 69.73 30.65Q69.72 30.68 69.7 30.71Q69.41 31.08 68.94 31.31Q68.89 31.33 68.85 31.35Q69.2 31.46 69.49 31.65Q69.65 31.76 69.78 31.9Q69.93 32.06 70.03 32.26Q70.22 32.62 70.22 33.14Q70.22 33.65 70.02 34.04Q69.98 34.11 69.94 34.17Q69.84 34.33 69.72 34.45Q69.49 34.7 69.17 34.86Q68.67 35.1 68.04 35.1Q67.53 35.1 67.12 34.95Q66.71 34.79 66.42 34.53Q66.26 34.38 66.14 34.21Q66.05 34.07 65.97 33.91Q65.94 33.83 65.91 33.76Q65.82 33.47 65.82 33.14L66.68 33.14Q66.68 33.36 66.75 33.54Q66.79 33.64 66.85 33.74Q66.87 33.77 66.9 33.81Q67.07 34.02 67.33 34.15Q67.64 34.29 68.04 34.29Q68.44 34.29 68.74 34.14Q68.93 34.04 69.06 33.89Q69.14 33.81 69.19 33.71Q69.36 33.43 69.36 33.04Q69.36 32.72 69.23 32.48Q69.17 32.36 69.09 32.27Q69 32.16 68.88 32.07Q68.66 31.9 68.37 31.83Q68.09 31.75 67.74 31.75L67.74 31.55ZM54.39 31.25L56.76 28L57.83 28L55.87 30.58Q55.93 30.55 55.99 30.52Q56.01 30.51 56.04 30.51Q56.3 30.42 56.65 30.42Q56.97 30.42 57.26 30.52Q57.35 30.55 57.45 30.6Q57.59 30.66 57.72 30.75Q57.93 30.88 58.11 31.07Q58.15 31.12 58.18 31.16Q58.42 31.44 58.55 31.8Q58.71 32.21 58.71 32.7Q58.71 33.41 58.41 33.94Q58.4 33.95 58.4 33.96Q58.22 34.26 57.97 34.49Q57.78 34.66 57.55 34.79Q57.49 34.83 57.42 34.86Q56.93 35.1 56.34 35.1Q55.78 35.1 55.32 34.89Q55.22 34.85 55.12 34.79Q54.88 34.66 54.68 34.47Q54.44 34.25 54.27 33.96Q54.27 33.95 54.26 33.94Q53.96 33.41 53.96 32.7Q53.96 32.27 54.08 31.9Q54.19 31.53 54.39 31.25ZM60.58 30.37Q60.47 30.89 60.47 31.49Q60.47 32.1 60.58 32.62Q60.7 33.13 60.93 33.51Q61.17 33.88 61.49 34.09Q61.61 34.16 61.74 34.21Q61.96 34.29 62.22 34.29Q62.52 34.29 62.77 34.18Q62.86 34.14 62.95 34.09Q63.27 33.88 63.49 33.51Q63.72 33.13 63.84 32.62Q63.97 32.1 63.97 31.49Q63.97 30.89 63.84 30.37Q63.72 29.86 63.49 29.48Q63.27 29.1 62.95 28.9Q62.86 28.85 62.77 28.81Q62.52 28.7 62.22 28.7Q61.96 28.7 61.74 28.78Q61.61 28.83 61.49 28.9Q61.17 29.1 60.93 29.48Q60.7 29.86 60.58 30.37ZM54.96 31.87Q54.77 32.23 54.77 32.7Q54.77 33.18 54.97 33.54L54.97 33.54Q55.08 33.74 55.24 33.9Q55.37 34.02 55.53 34.12Q55.59 34.15 55.66 34.18Q55.96 34.33 56.34 34.33Q56.7 34.33 57 34.19Q57.07 34.16 57.14 34.12Q57.3 34.02 57.44 33.89Q57.59 33.74 57.7 33.54L57.7 33.54Q57.91 33.18 57.91 32.7Q57.91 32.23 57.72 31.87Q57.71 31.85 57.7 31.84Q57.57 31.61 57.39 31.44Q57.27 31.33 57.14 31.25Q57.07 31.21 57 31.18Q56.7 31.04 56.34 31.04Q55.96 31.04 55.66 31.19Q55.59 31.22 55.53 31.25Q55.4 31.33 55.3 31.43Q55.1 31.6 54.97 31.84Q54.96 31.85 54.96 31.87Z" fill="#5D6C7B" fill-opacity="1.000000" fill-rule="evenodd"/>
</svg>
